<?xml version="1.0" encoding="UTF-8" standalone="no"?> <svg width="512" height="512" viewBox="0 0 512 512" fill="none" xmlns="http://www.w3.org/2000/svg">
<path d="M132.011 288H32.281C33.0639 292.48 35.4015 296.54 38.8825 299.467C42.3636 302.393 46.7652 303.998 51.313 304H148.231L132.011 288Z" fill="currentColor"/>
<path d="M164.45 320H56.281C57.0639 324.48 59.4015 328.54 62.8825 331.467C66.3636 334.393 70.7652 335.998 75.313 336H180.67L164.45 320Z" fill="currentColor"/>
<path d="M335.335 248.252L335.996 247.46C345.872 235.594 351.285 220.646 351.296 205.208V192H315.396C313.557 221.957 301.174 250.297 280.442 272H284.642C294.318 272.011 303.877 269.888 312.639 265.784C321.401 261.679 329.15 255.693 335.335 248.252Z" fill="currentColor"/>
<path d="M196.89 352H80.3C81.0746 356.48 83.4073 360.543 86.8864 363.471C90.3655 366.398 94.7671 368.003 99.314 368H215.454C209.627 363.786 204.128 359.135 199.006 354.087L196.89 352Z" fill="currentColor"/>
<path d="M259.5 269.705C271.019 260.13 280.485 248.327 287.33 235.004C294.176 221.68 298.259 207.112 299.336 192.172C276.216 193.148 253.494 198.52 232.385 208H264.478C266.6 208 268.635 208.843 270.135 210.343C271.635 211.843 272.478 213.878 272.478 216C272.478 218.122 271.635 220.156 270.135 221.657C268.635 223.157 266.6 224 264.478 224H203.866C196.788 228.851 190.063 234.198 183.741 240H235.641C237.763 240 239.798 240.843 241.298 242.343C242.798 243.843 243.641 245.878 243.641 248C243.641 250.122 242.798 252.156 241.298 253.657C239.798 255.157 237.763 256 235.641 256H168.5L153.643 272H256.75L259.5 269.705Z" fill="currentColor"/>
<path d="M404.7 128.723C403.387 130.746 401.634 132.445 399.572 133.693C397.509 134.941 395.19 135.706 392.79 135.931C390.389 136.156 387.969 135.834 385.711 134.99C383.453 134.146 381.415 132.801 379.75 131.057C373.662 133.798 368.494 138.238 364.866 143.843C361.238 149.448 359.305 155.98 359.297 162.657V176C361.419 176 363.453 176.843 364.954 178.343C366.454 179.844 367.297 181.878 367.297 184V205.208C367.297 207.76 367.169 210.301 366.932 212.826C384.964 229.81 408.665 239.486 433.432 239.973C433.887 236.053 434.221 232.11 434.432 228.144C435.574 205.218 437.052 175.283 438.077 154.098L422.129 138.15C417.369 133.367 411.308 130.089 404.7 128.723V128.723Z" fill="currentColor"/>
<path d="M348.287 257.7L347.627 258.492C339.942 267.739 330.312 275.177 319.424 280.277C308.535 285.378 296.657 288.014 284.633 288H154.794L173.388 306.342L210.243 342.7C229.339 361.449 253.824 373.75 280.265 377.878L303.531 470.943C303.964 472.674 304.962 474.21 306.369 475.308C307.775 476.406 309.508 477.003 311.292 477.003H335.292C337.414 477.003 339.449 476.16 340.949 474.66C342.449 473.159 343.292 471.125 343.292 469.003C343.292 466.881 342.449 464.846 340.949 463.346C339.449 461.846 337.414 461.003 335.292 461.003H317.539L297.132 379.374C299.097 379.417 301.066 379.419 303.038 379.374L304.858 379.328C312.848 379.127 320.797 378.122 328.585 376.328L352.239 470.943C352.672 472.673 353.671 474.209 355.077 475.307C356.484 476.404 358.216 477 360 477H384C386.122 477 388.157 476.157 389.657 474.657C391.157 473.156 392 471.122 392 469C392 466.878 391.157 464.843 389.657 463.343C388.157 461.843 386.122 461 384 461H366.246L343.915 371.675C364.756 363.728 382.899 350.002 396.215 332.108L397.185 330.808C413.84 308.648 425.357 283.061 430.9 255.9C406.225 254.956 382.5 246.137 363.2 230.735C359.976 240.584 354.916 249.734 348.287 257.7ZM232 320H216C213.878 320 211.843 319.157 210.343 317.657C208.843 316.156 208 314.122 208 312C208 309.878 208.843 307.843 210.343 306.343C211.843 304.843 213.878 304 216 304H232C234.122 304 236.157 304.843 237.657 306.343C239.157 307.843 240 309.878 240 312C240 314.122 239.157 316.156 237.657 317.657C236.157 319.157 234.122 320 232 320ZM264 344H248C245.878 344 243.843 343.157 242.343 341.657C240.843 340.156 240 338.122 240 336C240 333.878 240.843 331.843 242.343 330.343C243.843 328.843 245.878 328 248 328H264C266.122 328 268.157 328.843 269.657 330.343C271.157 331.843 272 333.878 272 336C272 338.122 271.157 340.156 269.657 341.657C268.157 343.157 266.122 344 264 344ZM379.646 272C379.646 269.878 380.489 267.843 381.989 266.343C383.489 264.843 385.524 264 387.646 264C389.768 264 391.803 264.843 393.303 266.343C394.803 267.843 395.646 269.878 395.646 272V280C395.646 282.122 394.803 284.156 393.303 285.657C391.803 287.157 389.768 288 387.646 288C385.524 288 383.489 287.157 381.989 285.657C380.489 284.156 379.646 282.122 379.646 280V272ZM371.646 312C371.646 309.878 372.489 307.843 373.989 306.343C375.489 304.843 377.524 304 379.646 304C381.768 304 383.803 304.843 385.303 306.343C386.803 307.843 387.646 309.878 387.646 312V320C387.646 322.122 386.803 324.156 385.303 325.657C383.803 327.157 381.768 328 379.646 328C377.524 328 375.489 327.157 373.989 325.657C372.489 324.156 371.646 322.122 371.646 320V312ZM363.646 288C363.646 290.122 362.803 292.156 361.303 293.657C359.803 295.157 357.768 296 355.646 296C353.524 296 351.489 295.157 349.989 293.657C348.489 292.156 347.646 290.122 347.646 288V280C347.646 277.878 348.489 275.843 349.989 274.343C351.489 272.843 353.524 272 355.646 272C357.768 272 359.803 272.843 361.303 274.343C362.803 275.843 363.646 277.878 363.646 280V288Z" fill="currentColor"/>
<path d="M455.065 133.6C454.876 137.794 454.581 144.036 454.227 151.382C460.618 147.342 467.536 144.202 474.785 142.052L455.065 133.6Z" fill="currentColor"/>
<path d="M383.292 72C368.445 72.0169 354.211 77.9224 343.713 88.4207C333.214 98.9191 327.309 113.153 327.292 128V128.111C327.334 134.637 325.199 140.992 321.225 146.169C317.25 151.345 311.663 155.049 305.347 156.694C302.824 157.346 300.288 158.054 297.81 158.794C275.778 165.408 254.996 175.631 236.31 189.047C258.84 180.433 282.754 176.012 306.874 176H343.292V162.656C343.305 152.378 346.44 142.347 352.281 133.891C358.121 125.434 366.393 118.951 376 115.3C376.934 112.268 378.748 109.583 381.212 107.584C383.676 105.586 386.678 104.365 389.837 104.077C392.997 103.789 396.17 104.446 398.955 105.966C401.74 107.485 404.01 109.798 405.477 112.611C416.079 114.249 425.879 119.234 433.445 126.84L439.105 132.5C439.218 130 439.285 128.416 439.294 127.962C439.268 113.121 433.358 98.8963 422.86 88.406C412.362 77.9157 398.133 72.0159 383.292 72V72Z" fill="currentColor"/>
</svg>
